#!OML:ASF F:\VICON\USERDATA\INSTALL\rory3\rory3.ASF
:FULLY-SPECIFIED
:DEGREES
73
root -0.15316813835132947 17.452017933024937 38.39095282899884 3.2765121058117477 2.3141596875678623 -0.40724113389495686
lfemur 0.6832680986529667 -2.504784628007988 -25.716554504519262
ltibia 42.26670264712112
lfoot -9.835161571427514 -2.121727208673944
ltoes -18.707561144289475
rfemur -41.213817206311774 -5.119341047801587 23.710688599592117
rtibia 94.95404115184992
rfoot 3.429129135413283 -5.633378958682186
rtoes 4.762665988108988
lowerback 15.72461889067606 -0.040851895623195356 -1.6179997896376561
upperback -0.9773122417781939 -0.2762727991132867 0.9867716583639263
thorax -9.877147840019541 0.0009321273042539602 2.5878140212314276
lowerneck -21.527203134011902 -2.7708595466728028 -1.9467543747206204
upperneck 14.489321102672195 -3.7544245317400122 2.9206669358423634
head 7.994677143081985 -1.55983152461623 0.808829213587253
lclavicle -1.0175106317309142e-15 2.2998517396964134e-15
lhumerus -36.53835985422435 -15.979976872061751 97.46228029399646
lradius 112.82427872068567
lwrist 35.91118658355375
lhand -25.407561239031427 1.4470280141245286
lfingers 7.12502
lthumb 1.1178858973572015 31.446831339907195
rclavicle -1.0175106317309142e-15 2.2998517396964134e-15
rhumerus -56.40153163528323 6.72186105561171 -99.97862808430722
rradius 105.97872372000337
rwrist -13.034868654625773
rhand -15.02640190614763 38.637809690083955
rfingers 7.12502
rthumb 11.140066697722547 9.369646603521984
74
root -0.1289722860612335 17.61591619389278 39.37592308661435 3.563647876697958 1.6619930266339922 -0.672102068810414
lfemur 3.8698249377078913 -2.214221406653894 -25.454782131207235
ltibia 39.56210822978082
lfoot -4.8282755209153585 -4.292597602406467
ltoes -21.435376492877467
rfemur -42.58124704570922 -4.126875222063481 24.370198740670737
rtibia 88.49354624952505
rfoot 2.614232976626728 -5.370677825088168
rtoes 2.8390939192009514
lowerback 15.299262756809073 -0.35356123515112037 -1.5148714053048413
upperback -1.1966973754799428 -0.6389632641520433 1.3404224078950706
thorax -9.796901079264396 -0.16384369643300511 2.9776630465438942
lowerneck -21.464879407238 -2.4699401637629013 -2.0898303382284484
upperneck 14.737799056353989 -3.286592517176273 2.7361341122101708
head 8.036353288089279 -1.3591020142086392 0.8139390874164567
lclavicle -1.1350026822968464e-15 2.214490005571337e-15
lhumerus -35.797193268718424 -15.801465461477516 96.87344595751684
lradius 114.60020988209838
lwrist 36.640227085428464
lhand -25.3205417903043 1.3920544045883272
lfingers 7.12502
lthumb 1.2019182126763959 31.38382569929131
rclavicle -1.1350026822968464e-15 2.214490005571337e-15
rhumerus -58.136779260078505 6.668993285560119 -99.52742428360118
rradius 106.75907813566626
rwrist -13.291959293347299
rhand -14.782828034204742 38.69860210769203
rfingers 7.12502
rthumb 11.37518570892042 9.4064232570327
75
root -0.10406097775771721 17.76983478958819 39.69877131777077 3.7817486683321535 0.7652777861914608 -1.0579476730991024
lfemur 6.251532765398364 -2.1032780339237793 -25.339960658885023
ltibia 36.113605531881035
lfoot 0.5850635386937115 -6.674857298291017
ltoes -22.575772482684364
rfemur -43.78282992076363 -2.9873403361231317 24.897160246962088
rtibia 80.03945935040144
rfoot 1.8444561304039393 -4.941560085321026
rtoes -0.11377945438220882
lowerback 14.793477105250124 -0.6165994290066792 -1.433464643789063
upperback -1.459574576289259 -0.9355490288252621 1.6588826495561566
thorax -9.73273229964318 -0.2983785516925169 3.18997921989244
lowerneck -21.35723236575367 -2.2728097904392697 -2.2873902393116934
upperneck 14.962966625069681 -2.959092998749599 2.5642424548011107
head 8.070152373431604 -1.2244277527247664 0.8196271050999095
lclavicle -1.9741875392686197e-15 1.6057570461898216e-15
lhumerus -35.883496673245304 -16.036205184987786 96.21757533508249
lradius 115.73530537034027
lwrist 36.67510799125842
lhand -25.138092671332977 1.1169780834126048
lfingers 7.12502
lthumb 1.3781158446485615 31.099805428724327
rclavicle -1.9741875392686197e-15 1.6057570461898218e-15
rhumerus -60.048105735613085 6.2509814492017695 -98.94294406104648
rradius 107.341356591599
rwrist -13.397045668580208
rhand -14.719533934161749 38.701354927625424
rfingers 7.12502
rthumb 11.436345233939281 9.380827826277901
76
root -0.06615295283399789 17.93975048573031 40.89737010153686 4.0744713107476445 0.024255542003559727 -1.2411581786217027
lfemur 9.422082437940341 -2.141622668361716 -25.154409493962515
ltibia 33.92575907195886
lfoot 6.672738923886605 -8.525930965869371
ltoes -21.226422896572874
rfemur -43.643206459545496 -1.6919638748501393 25.478838835964943
rtibia 71.98568010258538
rfoot 2.1650163231959647 -4.022038570625425
rtoes -3.045988171651517
lowerback 14.398809366495799 -0.7790847330534376 -1.2091571688983949
upperback -1.7045139704594772 -1.0868215488740902 1.979529672097917
thorax -9.673041448544518 -0.3716726577341801 3.4812811657814025
lowerneck -21.098222114472442 -2.0624664568558306 -2.46198558222598
upperneck 15.215515783051275 -2.6078203868750705 2.466170294300956
head 8.109771915283822 -1.0802921298342398 0.8498410316864324
lclavicle -1.6294791200093685e-15 1.855890359224828e-15
lhumerus -35.390192494292144 -16.27800533818713 95.64271843822567
lradius 116.73442368656521
lwrist 36.29307765950588
lhand -24.786894687925884 0.8946817094601842
lfingers 7.12502
lthumb 1.7172990648180309 30.87143115962736
rclavicle -1.6294791200093687e-15 1.855890359224828e-15
rhumerus -61.5890672943758 5.746779787253683 -98.05418783027055
rradius 108.12815315053248
rwrist -13.225138088942725
rhand -14.678533669189079 38.778960500891515
rfingers 7.12502
rthumb 11.476003297591262 9.418277787304598
